<svg xmlns="http://www.w3.org/2000/svg" viewBox="0 0 100 100">
  <defs>
    <linearGradient id="leaf" x1="0%" y1="0%" x2="100%" y2="100%">
      <stop offset="0%" stop-color="#7A9C6B"/>
      <stop offset="100%" stop-color="#5C7A4E"/>
    </linearGradient>
  </defs>
  <path d="M50 10 C30 30 20 55 25 75 C30 80 40 85 50 80 C60 85 70 80 75 75 C80 55 70 30 50 10Z" fill="url(#leaf)"/>
  <path d="M50 15 C40 30 35 50 38 65 C42 68 46 70 50 68 C54 70 58 68 62 65 C65 50 60 30 50 15Z" fill="rgba(255,255,255,0.15)"/>
  <line x1="50" y1="15" x2="50" y2="75" stroke="rgba(255,255,255,0.25)" stroke-width="1.5" stroke-linecap="round"/>
</svg>
